# xmcd
#
# Track frame offsets: 
#        180
#        28187
#        46907
#        73715
#
# Disc length: 1341 seconds
#
# Revision: 0
# Processed by: cddbd v1.5.2PL0 Copyright (c) Steve Scherf et al.
# Submitted via: ExactAudioCopy v1.0b3
#
DISCID=31053b04
DTITLE=St. Etien - He's On The Phone
DYEAR=1900
DGENRE=
TTITLE0=He's On The Phone (Original Edit)
TTITLE1=He's On The Phone (Radio Edit)
TTITLE2=He's On The Phone (Factory Team Remix)
TTITLE3=Unlimited
EXTD=
EXTT0=
EXTT1=
EXTT2=
EXTT3=
PLAYORDER=
